<?xml version="1.0" encoding="UTF-8"?>
<svg id="Layer_1" data-name="Layer 1" xmlns="http://www.w3.org/2000/svg" viewBox="0 0 721.41 393.16">
  <defs>
    <style>
      .cls-1 {
        fill: #fdfdfd;
      }

      .cls-1, .cls-2, .cls-3, .cls-4, .cls-5, .cls-6, .cls-7, .cls-8, .cls-9, .cls-10, .cls-11, .cls-12, .cls-13, .cls-14, .cls-15, .cls-16, .cls-17, .cls-18 {
        stroke-width: 0px;
      }

      .cls-2 {
        fill: #b4b0b0;
      }

      .cls-3 {
        fill: #ece6e6;
      }

      .cls-4 {
        fill: #faf4f4;
      }

      .cls-5 {
        fill: #d2cece;
      }

      .cls-6 {
        fill: #fcf7f7;
      }

      .cls-7 {
        fill: #eae4e4;
      }

      .cls-8 {
        fill: #ebe6e6;
      }

      .cls-9 {
        fill: #eee8e8;
      }

      .cls-10 {
        fill: #aeaaaa;
      }

      .cls-11 {
        fill: #eae5e5;
      }

      .cls-12 {
        fill: #fefefe;
      }

      .cls-13 {
        fill: #d8d4d4;
      }

      .cls-14 {
        fill: #ece7e7;
      }

      .cls-15 {
        fill: #f1ebeb;
      }

      .cls-16 {
        fill: #d0d0d0;
      }

      .cls-17 {
        fill: #ede7e7;
      }

      .cls-18 {
        fill: #ebe5e5;
      }
    </style>
  </defs>
  <path class="cls-1" d="M511.15,6.56q1.02,0,2.06,0c18.74.04,37.47.52,56.2.99,3.74.09,7.48.18,11.22.27q32.25.76,48.26,1.38c.96.04,1.93.07,2.92.11,27.67,1.17,49.38,10.47,68.85,30.39,13.45,15.38,20.72,35.36,20.74,55.64,0,.72,0,1.44,0,2.18,0,2.37,0,4.74-.01,7.11,0,.83,0,1.65,0,2.51-.03,18.89-.47,37.77-.99,56.66-.09,3.45-.18,6.89-.27,10.34-.4,15.68-.82,31.35-1.39,47.02-.04,1.07-.08,2.15-.12,3.25-.78,20.6-6.22,37.53-18.36,54.26-.5.69-1,1.39-1.52,2.1-9.43,11.91-23.67,20.14-37.48,25.9-.65.3-1.3.6-1.98.9-12.84,5.49-27.99,4.42-41.65,4.35-1.08,0-2.16,0-3.27,0-9.37-.03-18.74-.13-28.11-.24q-1.31-.02-2.65-.03c-13.11-.16-26.21-.37-39.32-.61-4.12-.08-8.25-.14-12.37-.2-4.95-.07-9.89-.17-14.84-.27-1.83-.04-3.66-.07-5.5-.09-17.21-.23-33.03-2.51-48.33-10.79-.88-.47-1.76-.95-2.67-1.44-22.55-12.87-36.01-32.87-43.14-57.34-1.1-4.7-1.26-9.2-1.23-14.03,0-1.16.01-2.33.02-3.52,0-.88.01-1.77.02-2.67q28.93-.21,43,1c.15.94.29,1.89.45,2.86,2.32,13.3,6.45,24.63,17.55,33.14,6.09,3.59,12.22,6.99,19.38,7.3.88.04,1.75.08,2.66.12.94.04,1.89.07,2.86.11.98.04,1.97.08,2.98.13,9.93.4,19.86.66,29.8.88,1.91.04,3.81.09,5.72.13,3.97.09,7.93.18,11.9.26,3.99.09,7.98.18,11.97.27q28.2.66,56.41.97c1.39,0,2.78.02,4.16.03,15.08.15,26.99-2.5,38.2-13.12,2.97-3.15,5.13-6.17,6.97-10.09.38-.81.76-1.61,1.15-2.45,2.77-7.23,3.18-14.16,3.39-21.82.04-1.15.07-2.31.11-3.49.13-4.08.24-8.16.34-12.24q.03-1.17.06-2.36c.32-11.77.6-23.54.87-35.31.09-3.84.18-7.69.27-11.53.26-10.98.51-21.97.71-32.95.06-3.09.12-6.18.2-9.28.09-3.85.15-7.7.2-11.55.03-1.07.06-2.14.09-3.24.11-13.16-4.87-23.93-13.65-33.54-4.03-3.83-8.63-6.18-13.75-8.25-.61-.25-1.22-.49-1.84-.75-6.25-2.32-11.99-2.76-18.62-2.87-1.11-.03-2.22-.06-3.37-.09-3.66-.09-7.32-.17-10.99-.24-2.57-.06-5.15-.12-7.72-.19-5.4-.13-10.79-.25-16.19-.37-7.52-.16-15.04-.34-22.56-.52-5.93-.14-11.86-.28-17.78-.42-1.23-.03-2.45-.06-3.72-.09-12.68-.29-25.35-.52-38.03-.6-1.03-.01-2.05-.02-3.11-.03-12.86-.03-22.24,4.04-31.82,12.75-7.68,8.16-10.29,17.57-12.26,28.41h-43c0-23.95,9.19-43.52,25.44-60.81,18.76-17.63,41.16-24.4,66.44-24.31Z"/>
  <path class="cls-12" d="M82.63.52q1.89-.02,3.81-.03c1.38,0,2.76-.01,4.14-.02,1.46,0,2.93-.02,4.39-.03,4.8-.03,9.6-.05,14.4-.07q1.23,0,2.49,0c7.76-.03,15.52-.06,23.28-.07,9.87-.02,19.74-.06,29.61-.13,6.97-.05,13.94-.07,20.9-.08,4.15,0,8.29-.02,12.44-.06,27.93-.26,52.49,2.21,74.19,21.66.91.81,1.81,1.62,2.75,2.46,18.1,17.12,25.71,37.87,27.25,62.54h-43c-.99-4.95-1.98-9.9-3-15-5.42-11.98-12.77-19.84-25-25-7.32-2.34-14.33-2.29-21.97-2.27-1.4,0-2.81,0-4.21-.02-3.79-.01-7.59-.01-11.38-.01-3.18,0-6.35,0-9.53,0-7.5-.01-14.99-.01-22.49,0-7.71,0-15.43,0-23.14-.03-6.64-.02-13.28-.02-19.92-.02-3.96,0-7.92,0-11.88-.01-3.72-.01-7.45-.01-11.17,0-2,0-4.01,0-6.01-.02-12.47.07-23.14,2.85-32.52,11.43-7.48,7.94-12.99,18.02-13.04,29.1,0,1.21-.02,2.42-.03,3.67q0,1.97,0,3.98c0,1.41-.02,2.82-.03,4.23-.02,3.82-.03,7.63-.04,11.45,0,2.39,0,4.78-.02,7.17-.02,8.35-.04,16.71-.04,25.06,0,7.76-.03,15.52-.08,23.28-.03,6.68-.05,13.36-.05,20.04,0,3.98,0,7.96-.04,11.94-.03,3.75-.03,7.5-.01,11.26,0,2.01-.02,4.02-.04,6.04.1,12.02,3.67,23.53,11.64,32.75,8.38,8.13,18.1,13.09,29.85,13.15q1.8.01,3.63.03t3.97.01c1.4,0,2.79.02,4.19.02,4.59.03,9.17.04,13.76.06,1.58,0,3.17.01,4.75.02,6.59.02,13.19.04,19.78.05,9.42.02,18.84.05,28.26.11,6.64.04,13.28.06,19.91.06,3.96,0,7.91.02,11.87.05,3.73.03,7.46.04,11.19.02,2,0,4,.02,6,.05,12.74-.09,24.63-3.5,33.84-12.63,8.55-9.3,10.88-17.26,13-30h43c0,9.4-.08,15.56-3,24q-.53,1.56-1.07,3.15c-8.42,23.38-24.29,40.42-46.35,51.57-13.37,6.13-26.5,7.73-41.1,7.68-1.49,0-2.97.01-4.46.02-3.99.02-7.97.02-11.96.01-3.35,0-6.69,0-10.04,0-7.9.01-15.81.01-23.71,0-8.11-.01-16.23,0-24.34.03-7.01.02-14.01.03-21.02.02-4.17,0-8.33,0-12.5.02-3.92.02-7.84.01-11.76,0-1.43,0-2.85,0-4.28,0-13.05.09-25.18-2.36-36.99-8.08-.7-.33-1.4-.67-2.12-1.01-7.58-3.8-13.96-8.86-20.32-14.42-.69-.59-1.39-1.19-2.11-1.8C10.14,264.02,1.18,242.43.09,222.27c-.07-3.78-.09-7.55-.07-11.33,0-1.44,0-2.88-.01-4.32,0-3.87,0-7.74,0-11.62,0-4.08,0-8.15,0-12.23,0-6.84,0-13.68.01-20.52.01-7.88,0-15.76,0-23.64,0-6.8-.01-13.59,0-20.39,0-4.05,0-8.09,0-12.14,0-3.81,0-7.61,0-11.42,0-2.04,0-4.08,0-6.12.1-21.73,6.25-40.15,20.27-56.88.57-.73,1.14-1.46,1.73-2.21C36.23,12.15,60.34.66,82.63.52Z"/>
  <path class="cls-1" d="M445.28.68q1,1,1.22,3.73c-.24,3.57-1.03,5.53-2.71,8.66-.53,1.01-1.07,2.02-1.62,3.06-.58,1.07-1.16,2.14-1.76,3.24q-.89,1.68-1.81,3.39c-1.21,2.27-2.42,4.53-3.64,6.79-1.83,3.4-3.62,6.82-5.41,10.25-3.18,6.09-6.41,12.15-9.66,18.19-6.93,12.87-13.77,25.77-20.48,38.75-.35.68-.71,1.36-1.07,2.06-1,1.93-1.99,3.86-2.99,5.78q-.85,1.66-1.73,3.35-1.42,2.73-2.34,5.74.9-.01,1.82-.03c7.83-.07,15.62.3,23.43.74,2.37.13,4.75.26,7.12.39,4.21.23,8.42.46,12.63.69,6.66.37,13.33.74,19.99,1.1,1.62.09,3.25.18,4.87.27,8.08.45,16.17.86,24.26,1.12q1.83.06,3.7.12c2.24.07,4.47.13,6.71.17q1.45.04,2.93.08,1.25.03,2.53.06,2,.29,4,2.29c-.42,7.65-6.65,13.16-12,18-2.68,2.23-5.39,4.43-8.11,6.61-2.88,2.38-5.64,4.85-8.39,7.39-3.56,3.27-7.17,6.41-10.94,9.44-4.54,3.66-8.82,7.51-13.08,11.48-4.09,3.78-8.36,7.28-12.7,10.77-3.02,2.51-5.91,5.14-8.78,7.81-4.59,4.27-9.33,8.26-14.22,12.19-3.02,2.51-5.91,5.14-8.78,7.81-4.61,4.29-9.38,8.3-14.29,12.25-2.82,2.33-5.52,4.77-8.21,7.25-3.56,3.27-7.17,6.41-10.94,9.44-3.99,3.22-7.81,6.57-11.56,10.06-4.61,4.29-9.38,8.3-14.29,12.25-2.82,2.33-5.52,4.77-8.21,7.25-4.45,4.09-9.05,7.92-13.75,11.72-3.79,3.14-7.38,6.48-11,9.82-2.66,2.39-5.39,4.66-8.18,6.9-3.99,3.22-7.81,6.57-11.56,10.06-4.6,4.28-9.37,8.3-14.27,12.24-2.92,2.42-5.7,4.94-8.48,7.51q-10.62,9.75-14.25,9.75v2c-2.33.04-4.67.04-7,0q-1-1-1.32-4.14c.37-4.46,1.84-7.02,4.38-10.55.43-.62.85-1.24,1.29-1.87,1.39-2.01,2.8-4,4.21-6,.97-1.4,1.94-2.79,2.9-4.19,1.93-2.8,3.88-5.58,5.83-8.37,3.58-5.11,7.08-10.27,10.58-15.44,1.19-1.75,2.39-3.5,3.59-5.25,3.68-5.39,7.36-10.79,11.04-16.18,1.25-1.83,2.5-3.67,3.75-5.5.62-.91,1.24-1.82,1.88-2.75q20.62-30.25,22.5-33c1.24-1.82,2.48-3.64,3.72-5.46,3.26-4.78,6.52-9.57,9.79-14.35.68-.99,1.36-1.99,2.05-3.01,1.3-1.9,2.59-3.8,3.89-5.7,3-4.39,5.98-8.8,8.92-13.23q-1.24-.13-2.51-.26c-7.89-.93-15.51-2.35-23.24-4.18-7.68-1.81-15.31-3.32-23.12-4.46-6.08-.9-12.1-2.03-18.13-3.22-6.16-1.21-12.18-2.19-18.46-2.6-4.25-.46-8.36-1.56-12.51-2.58-2.61-.6-5.13-1.03-7.79-1.32q-3.25-.38-4.25-1.38c-.68-4-.03-6.47,2.19-9.75,4.23-5.22,9.67-8.99,15.04-12.93,2.9-2.16,5.74-4.39,8.58-6.63.57-.45,1.15-.9,1.74-1.37,5.23-4.12,10.39-8.33,15.54-12.54,4.19-3.41,8.42-6.75,12.71-10.03,4.86-3.71,9.61-7.52,14.32-11.41,5.55-4.53,11.22-8.92,16.87-13.34,10.62-8.31,21.16-16.71,31.68-25.15,5.24-4.2,10.51-8.36,15.8-12.5,5-3.92,9.96-7.89,14.92-11.87,4.73-3.79,9.49-7.53,14.26-11.26,3.84-3.01,7.63-6.07,11.41-9.16,2.68-2.19,5.36-4.36,8.05-6.53,1.22-.99,2.43-1.98,3.64-2.98,1.59-1.3,3.19-2.58,4.8-3.86.89-.72,1.78-1.44,2.69-2.18,3.45-1.9,5.86-1.86,9.75-1.51Z"/>
  <path class="cls-7" d="M502.57,361.49q1.81,0,3.65.02t3.8.05c1.27,0,2.54.02,3.85.03,3.13.02,6.27.06,9.4.1.04,1.67.04,3.33,0,5q-1,1-3.41,1.11c-1.04,0-2.08-.01-3.16-.02-1.12,0-2.25,0-3.41,0-1.18,0-2.37-.02-3.59-.03-1.19,0-2.38,0-3.6-.01-2.95-.01-5.89-.03-8.84-.05-.33,1.98-.66,3.96-1,6,.63-.01,1.25-.02,1.9-.03,2.83-.04,5.65-.07,8.48-.09.98-.02,1.97-.03,2.98-.05q1.41,0,2.85-.02,1.3-.02,2.63-.03,2.15.23,4.15,2.23c.7,5.84-.72,10.23-4,15-3.54,2.36-5.01,2.23-9.2,2.2-1.21,0-2.42-.01-3.66-.02q-1.89-.03-3.83-.05c-1.27,0-2.55-.02-3.86-.03-3.15-.02-6.3-.06-9.45-.1-.04-1.67-.04-3.33,0-5q1-1,3.41-1.11,1.56,0,3.16.02c1.12,0,2.25,0,3.41,0,1.18,0,2.37.02,3.59.03,1.19,0,2.38,0,3.6.01,2.95.01,5.89.03,8.84.05l1-6c-.63.01-1.25.02-1.9.03-2.83.04-5.65.07-8.48.09-.98.02-1.97.03-2.98.05-.94,0-1.88.01-2.85.02q-1.3.02-2.63.03-2.15-.23-4.15-2.23-.05-2.46.25-5.38c.09-.96.18-1.91.27-2.9.48-2.69.95-4.47,2.48-6.73,3.41-2.23,6.28-2.23,10.3-2.2Z"/>
  <path class="cls-8" d="M189.34,360.62q1.45.03,2.94.06c-.55,6.6-1.8,12.51-3.81,18.81-.25.83-.5,1.66-.75,2.52-.25.8-.51,1.61-.77,2.44-.22.72-.45,1.44-.68,2.18-1.31,2.72-2.58,4.22-4.99,6.06q-3.02.45-6.52.39c-1.25-.01-2.5-.03-3.79-.04q-1.95-.05-3.95-.1c-1.32-.02-2.63-.04-3.99-.05-3.25-.05-6.51-.11-9.76-.2.33-1.98.66-3.96,1-6h26c.33-2.31.66-4.62,1-7-.63,0-1.25.01-1.9.02-2.83.02-5.65.03-8.48.05-.98,0-1.97.02-2.98.03q-1.41,0-2.85,0t-2.63.02q-2.15-.11-4.15-1.11c-.35-6.33.71-11.1,3-17h6c-.66,3.96-1.32,7.92-2,12h18c.31-1.96.62-3.92.94-5.94q1.11-7.04,5.12-7.12Z"/>
  <path class="cls-11" d="M608.34,360.62q1.45.03,2.94.06c-.97,6.1-2.19,11.83-4.27,17.65-1.35,4.35-2.02,8.85-2.73,13.35q-3,0-4.91-1.69c-.71-.76-1.42-1.53-2.15-2.31-4.64-4.81-9.64-8.94-14.94-13q-.15,1.95-.31,3.94c-.54,4.96-1.94,9.4-3.69,14.06h-6c1.41-10.58,4.18-20.72,7-31,3.47,1.63,5.65,3.47,8.31,6.25,3.73,3.83,7.57,7.34,11.69,10.75,2.37-4.95,3.64-9.56,4.57-14.96.69-3.28.99-3.03,4.49-3.1Z"/>
  <path class="cls-7" d="M416.28,361.68h6c-.48,4.13-.99,7.96-2,12,5.94-.33,11.88-.66,18-1,.99-3.63,1.98-7.26,3-11h6c-.62,4.94-1.6,9.57-2.94,14.38-1.51,5.51-2.88,11.03-4.06,16.62h-6c.14-1.44.29-2.88.44-4.31.08-.8.16-1.6.25-2.43q.32-2.26,1.32-5.26h-19c-.66,3.96-1.32,7.92-2,12h-6c1.44-10.57,3.31-20.97,7-31Z"/>
  <path class="cls-18" d="M346.28,361.23c1.2.02,2.4.04,3.63.06,1.3.01,2.6.03,3.94.04,1.37.03,2.74.07,4.12.1,1.38.02,2.77.04,4.15.05,3.39.05,6.77.11,10.16.2.04,1.67.04,3.33,0,5q-1,1-3.5,1.11c-1.08,0-2.17-.01-3.28-.02-1.17,0-2.34,0-3.54,0-1.23,0-2.46-.02-3.73-.03q-1.85,0-3.74-.01c-3.06-.01-6.13-.03-9.19-.05q-.15,1.92-.31,3.88-.69,5.12-3.69,15.12h24v6c-4.09.05-8.19.09-12.28.11-1.39.01-2.79.02-4.18.04-2,.02-4,.03-6,.04-1.2.01-2.41.02-3.65.03q-2.89-.23-4.89-2.23c-.66-5.56,1.12-10.41,2.81-15.62q.39-1.27.79-2.56,3.35-10.5,8.4-11.27Z"/>
  <path class="cls-15" d="M128.16,361.45c1.2.01,2.41.02,3.65.03q1.95,0,3.95.02c1.38.02,2.76.03,4.14.05,1.39.01,2.78.02,4.16.03,3.4.02,6.81.06,10.21.1.04,1.67.04,3.33,0,5-1.75,1.75-4.19,1.23-6.57,1.32q-1.69.06-3.41.13c-1.18.04-2.37.08-3.59.12-1.19.04-2.38.09-3.6.13-2.95.11-5.89.21-8.84.31-1.32,5.94-2.64,11.88-4,18h23v6c-4.11.02-8.22.04-12.34.05-1.4,0-2.8.01-4.2.02-2.01.01-4.02.02-6.02.02-1.21,0-2.42.01-3.67.02q-2.78-.11-3.78-1.11c-.22-9.9,2.24-18.95,6-28q2-2,4.89-2.23Z"/>
  <path class="cls-17" d="M561.74,361.4c-1.3,0-2.57-.02-3.84-.03-1.3-.03-2.55-.06-3.81-.09q-1.84-.01-3.65-.03t-3.36-.04c-4.26.71-5.23,2.96-6.68,6.8-.23.84-.46,1.66-.68,2.48q-.37,1.35-.74,2.67-.35,1.27-.7,2.52c-1.81,5.43-2.53,10.3-2,16q1.18,1.18,9.73,1.33c1.2.01,2.36.03,3.52.04,4.3.14,8.48.25,12.75-.38,4.3-2.78,5.62-5.73,6.81-10.67.15-.71.29-1.39.44-2.08,1.31-5.73,2.44-11.37,2.75-17.25q-1.17-1.17-10.54-1.28ZM561.28,386.68h-19c1.25-6.36,2.59-12.67,4-19h19c0,7.19-1.78,12.19-4,19Z"/>
  <path class="cls-15" d="M405,361.44c-.96,0-1.88,0-2.81.01-1.04,0-2.06,0-3.07,0q-1.63.02-3.22.04c-5.61,0-12.39-1.05-17.24,2.31-4.62,6.28-6.87,19.15-6.38,26.88q2.27,2.27,10.87,2.32c1.19,0,2.35,0,3.51,0,1.18.02,2.33.03,3.48.05,1.14,0,2.25,0,3.35,0q3.07,0,5.79-.36c2.46-1.49,3.72-2.24,4.72-4.95.5-3.19,1.03-6.29,2.03-9.36,1.78-4.95,2.97-9.42,3.25-14.69q-2-2-4.27-2.24ZM397.28,386.68h-18c1.25-6.36,2.59-12.67,4-19h19c-1.21,6.58-2.76,12.69-5,19Z"/>
  <path class="cls-6" d="M451.28,373.68h32q-1,6-2,7c-2.29.09-4.59.11-6.88.1q-1.03,0-2.08,0c-2.2,0-4.4-.02-6.6-.03-1.49,0-2.98,0-4.47-.01-3.66-.01-7.31-.03-10.97-.05.33-2.31.66-4.62,1-7Z"/>
  <path class="cls-4" d="M236.23,373.57c1.29,0,2.59.01,3.92.02q1.03,0,2.08,0c2.2,0,4.4.02,6.6.03,1.49,0,2.98,0,4.47.01,3.66.01,7.31.03,10.97.05-.33,2.31-.66,4.62-1,7h-31q0-6.96,3.96-7.11Z"/>
  <path class="cls-14" d="M448.28,386.68h31v5q-1,1-3.96,1.11c-1.29,0-2.59-.01-3.92-.02q-1.03,0-2.08,0c-2.2,0-4.4-.02-6.6-.03-1.49,0-2.98,0-4.47-.01-3.66-.01-7.31-.03-10.97-.05.33-1.98.66-3.96,1-6Z"/>
  <path class="cls-17" d="M530.28,361.68h6c-1.31,7.17-3.07,14.13-5.12,21.12-.28.96-.55,1.91-.84,2.9-.67,2.33-1.35,4.65-2.04,6.98h-6c1.98-10.55,4.45-20.86,8-31Z"/>
  <path class="cls-3" d="M229.28,386.68h31v6h-32c.33-1.98.66-3.96,1-6Z"/>
  <path class="cls-14" d="M454.28,361.68h32c-.33,1.98-.66,3.96-1,6h-31v-6Z"/>
  <path class="cls-9" d="M236.28,361.68h30v6h-31c.33-1.98.66-3.96,1-6Z"/>
  <path class="cls-15" d="M293.65,380.87q2.46.11,4.62-.19c3.59-5.39,5.62-10.51,6-17q-2-2-4.89-2.23-1.84.02-3.65.03c-2,0-4,.02-6,.04-1.39.02-2.79.03-4.18.04-4.09.02-8.19.06-12.28.11-1.8,6.32-3.42,12.63-4.69,19.08q-.25,1.32-.5,2.61c-.61,3.1-1.22,6.21-1.81,9.31h6c1.36-4.42,2.68-8.71,4-13h2c1.59,2.15,3.12,4.3,4.62,6.5,1.19,1.85,2.41,3.58,3.81,5.28q2.56,2,9.57,1.22,0-2-1.53-4.38c-.67-.93-1.32-1.84-1.97-2.74q-.99-1.39-1.97-2.76-.77-1.07-1.53-2.12c.65.04,1.27.07,1.9.11q1.25.04,2.48.08ZM278.28,373.68v-6h19c-.33,1.98-.66,3.96-1,6h-18Z"/>
  <path class="cls-15" d="M224.39,361.45q-1.84.02-3.65.03c-2,0-4,.02-6,.04-1.39.02-2.79.03-4.18.04-4.09.02-8.19.06-12.28.11-.56,2.14-1.12,4.27-1.68,6.41-.24.9-.47,1.78-.7,2.65-.23.87-.45,1.72-.67,2.57-.23.86-.44,1.69-.66,2.53-.42,1.61-.85,3.23-1.29,4.84-1.29,4.23-2.1,7.6-2,12,3.17.02,6.33.04,9.5.05,1.32,0,2.6,0,3.88.01,1.31,0,2.58.02,3.85.03,1.25,0,2.46,0,3.67,0,3.09.01,5.34.29,8.1-1.1,2.99-3.65,4.26-6.48,5.12-11.12.39-2.56.74-4.59,1.88-6.92q1.55-3.04,1.99-9.95-2-2-4.89-2.23ZM217.28,386.68h-18c.33-1.98.66-3.96,1-6h18c-.33,1.98-.66,3.96-1,6ZM221.28,373.68h-18v-6h18v6Z"/>
  <path class="cls-10" d="M451.28,373.68h32q-1,6-2,7c-2.29.09-4.59.11-6.88.1q-1.03,0-2.08,0c-2.2,0-4.4-.02-6.6-.03-1.49,0-2.98,0-4.47-.01-3.66-.01-7.31-.03-10.97-.05.33-2.31.66-4.62,1-7ZM452.28,374.68v4h29v-4h-29Z"/>
  <path class="cls-2" d="M236.23,373.57c1.29,0,2.59.01,3.92.02q1.03,0,2.08,0c2.2,0,4.4.02,6.6.03,1.49,0,2.98,0,4.47.01,3.66.01,7.31.03,10.97.05v2c-9.9.33-19.8.66-30,1-.33.99-.66,1.98-1,3h30v1h-31q0-6.96,3.96-7.11Z"/>
  <path class="cls-5" d="M128.05,361.57c1.21,0,2.42.01,3.67.02,1.31,0,2.61,0,3.96,0,1.39,0,2.78.02,4.17.03,1.39,0,2.79,0,4.18.01,3.42.01,6.84.03,10.26.05v5c-.33-1.32-.66-2.64-1-4h-27c-.66,1.32-1.32,2.64-2,4l-2,1q2.3-5.97,5.78-6.11Z"/>
  <path class="cls-13" d="M546.87,361.57c1.13,0,2.25.01,3.41.02,1.21,0,2.43,0,3.68,0,1.28,0,2.56.02,3.88.03,1.28,0,2.57,0,3.89.01,3.18.01,6.37.03,9.55.05v1h-26c-.66,1.32-1.32,2.64-2,4l-2,1q2.3-5.97,5.59-6.11Z"/>
  <path class="cls-16" d="M251.28,148.68l2,1c-3.3,3.3-6.6,6.6-10,10,0-3.98,1.38-5.09,4-8q2.25-1.81,4-3Z"/>
</svg>