<?xml version="1.0" encoding="UTF-8"?>
<svg id="Layer_2" data-name="Layer 2" xmlns="http://www.w3.org/2000/svg" xmlns:xlink="http://www.w3.org/1999/xlink" viewBox="0 0 700.5 326.32">
  <defs>
    <style>
      .cls-1 {
        fill: #00ff41;
        stroke-width: 0px;
      }

      .cls-2 {
        filter: url(#outer-glow-1);
      }
    </style>
    <filter id="outer-glow-1" filterUnits="userSpaceOnUse">
      <feOffset dx="0" dy="0"/>
      <feGaussianBlur result="blur" stdDeviation="2.58"/>
      <feFlood flood-color="#64ff00" flood-opacity=".7"/>
      <feComposite in2="blur" operator="in"/>
      <feComposite in="SourceGraphic"/>
    </filter>
  </defs>
  <g id="Layer_1-2" data-name="Layer 1">
    <g class="cls-2">
      <g>
        <g>
          <path class="cls-1" d="M149.04,1.57c3.55.07,4.7,3.08,6.51,5.3,15.36,18.79,33.52,34.31,54.13,47.12,28.64,17.8,58.71,32.77,89.5,46.38,8.59,3.8,17.24,7.46,25.99,10.89.65.26,1.4.38,1.06,1.37-.32.93-1.02.51-1.58.39-24.11-5.1-47.91-11.4-71.37-18.94-19.33-6.21-38.34-13.25-56.68-22.02-11.21-5.36-22.07-11.35-32.14-18.67-.2-.14-.42-.25-.82-.48-.2,2.81-.38,5.48-.57,8.15-.95,13.53-2.63,26.98-4.08,40.45-1.87,17.34-3.77,34.68-3.99,52.16-.15,11.7.36,23.33,2.71,34.82.27,1.32.81,2.19,1.99,2.93,28.18,17.76,58.68,29.75,91.19,36.78,20.31,4.39,40.84,6.78,61.61,7.19,14.84.29,29.62-.23,44.33-2.28.53-.07,1.37-.66,1.64.52.31,1.32-.81,1.08-1.37,1.25-13.88,4.25-28.03,7.28-42.37,9.42-16.23,2.41-32.57,3.63-48.98,3.37-38.35-.6-75.04-8.29-109.38-25.87-6.87-3.52-13.52-7.4-20.01-11.58-.97-.62-1.47-1.36-1.73-2.5-2.84-12.28-4-24.75-4.62-37.3-.78-15.87-.49-31.74.09-47.62.5-13.98,1.31-27.95,2.05-41.92.77-14.6,1.3-29.21,2.04-43.81.5-9.79,1-19.59,1.7-29.37.14-1.92,1.5-2.77,2.73-3.82,1.4-1.19,3.25-1.42,4.78-2.33h5.66Z"/>
          <path class="cls-1" d="M269.97,249.3c-1.43,0-2.85-.01-4.26-.03-41.08-.64-77.09-9.16-110.07-26.04-6.66-3.41-13.44-7.33-20.14-11.66-1.31-.84-2.05-1.91-2.41-3.46-3.16-13.66-4.15-27.26-4.66-37.58-.83-16.92-.42-33.63.09-47.75.41-11.49,1.04-23.15,1.65-34.43.13-2.51.27-5.01.4-7.52.42-7.85.77-15.84,1.11-23.56.29-6.64.59-13.5.94-20.24.51-10.01,1.02-19.78,1.71-29.41.17-2.35,1.64-3.56,2.83-4.54.15-.12.3-.24.44-.37,1.03-.87,2.2-1.32,3.23-1.71.64-.24,1.25-.47,1.76-.78.24-.14.52-.22.8-.22h5.66s.02,0,.03,0c3.59.07,5.29,2.51,6.66,4.47.35.5.68.98,1.04,1.41,14.75,18.04,32.83,33.78,53.75,46.78,25.83,16.05,54.2,30.76,89.31,46.28,9.36,4.14,17.84,7.7,25.92,10.87.06.02.13.05.19.07,2.25.82,2.08,2.41,1.78,3.28-.23.65-.99,2.11-3.21,1.46-.06-.02-.13-.04-.19-.05-24.19-5.12-48.26-11.51-71.53-18.98-22.16-7.12-40.23-14.14-56.88-22.1-12.25-5.85-22.12-11.52-30.91-17.76l-.38,5.45c-.72,10.32-1.89,20.75-3.02,30.84-.36,3.22-.72,6.44-1.07,9.67l-.1.97c-1.8,16.7-3.66,33.97-3.88,51.05-.18,13.93.65,24.56,2.67,34.49.19.94.52,1.43,1.29,1.91,27.22,17.15,57.73,29.45,90.69,36.57,20.08,4.34,40.71,6.75,61.31,7.16,16.39.33,30.81-.42,44.08-2.27.02,0,.07-.02.12-.04.42-.13,1.28-.39,2.13.1.57.33.95.89,1.14,1.66.19.82.09,1.53-.3,2.1-.59.84-1.5.94-1.99,1-.06,0-.13.01-.18.02-13.36,4.09-27.3,7.19-42.57,9.46-15.3,2.27-30.41,3.42-44.98,3.42ZM143.79,3.14c-.62.33-1.25.56-1.86.79-.87.33-1.7.64-2.31,1.16-.16.14-.32.27-.49.41-1.06.87-1.62,1.37-1.69,2.33-.69,9.61-1.18,18.97-1.7,29.34-.34,6.74-.64,13.59-.93,20.22-.34,7.73-.69,15.73-1.11,23.59-.13,2.51-.27,5.01-.4,7.52-.61,11.26-1.23,22.91-1.65,34.37-.51,14.05-.91,30.68-.09,47.48.75,15.14,2.16,26.56,4.58,37.02.17.75.44,1.13,1.05,1.53,6.61,4.27,13.3,8.14,19.87,11.5,32.55,16.66,68.1,25.07,108.69,25.7,15.71.24,32.1-.89,48.72-3.36,12.12-1.8,23.38-4.13,34.2-7.07-11.1,1.13-23.04,1.55-36.23,1.29-20.81-.41-41.64-2.84-61.91-7.23-33.32-7.2-64.17-19.64-91.7-36.99-1.5-.94-2.33-2.16-2.69-3.94-2.07-10.16-2.92-21-2.74-35.16.22-17.23,2.09-34.57,3.89-51.34l.1-.97c.35-3.23.71-6.45,1.07-9.68,1.12-10.06,2.29-20.46,3.01-30.72l.57-8.15c.04-.54.35-1.02.83-1.28.48-.25,1.05-.25,1.52.03.13.08.25.14.34.19.21.12.41.23.62.38,9,6.54,19.13,12.42,31.9,18.53,16.52,7.9,34.47,14.87,56.48,21.94,20.73,6.66,42.1,12.45,63.62,17.25-5.95-2.43-12.17-5.08-18.83-8.03-35.24-15.59-63.74-30.36-89.69-46.49-21.21-13.18-39.56-29.15-54.52-47.46-.43-.52-.81-1.07-1.18-1.6-1.37-1.97-2.25-3.08-4.13-3.12h-5.23Z"/>
        </g>
        <g>
          <path class="cls-1" d="M1.57,199.51c1.15-.83,1.76-.11,2.46.74,13,15.72,27.22,30.22,43.09,43.08,29.74,24.08,63.24,40.1,100.97,47.12,18.85,3.5,37.85,4.8,56.98,4.37,22.25-.5,44.3-3.14,66.22-6.93,34.7-6,68.77-14.71,102.79-23.67,29.82-7.86,59.56-16,89.51-23.38,28.32-6.98,56.78-13.27,85.53-18.23,23.45-4.05,47.03-7.12,70.75-9.06,23.06-1.88,46.15-2.37,69.27-1.9,2.76.06,5.52.18,8.27.35.55.03,1.48-.42,1.51.81.03,1.13-.74.94-1.41.98-18.5.98-36.94,2.58-55.34,4.66-24.26,2.74-48.39,6.37-72.41,10.74-56.14,10.22-111.06,25.18-165.48,42.11-32.83,10.21-65.44,21.1-98.39,30.93-22.23,6.64-44.6,12.72-67.42,17.03-20.16,3.81-40.47,6.08-61.03,5.37-35.91-1.24-68.27-12.62-97.08-34.11-21.95-16.37-40.14-36.39-56.52-58.16-7.47-9.93-14.46-20.2-21.15-30.67-.32-.5-.47-1.16-1.11-1.41v-.75Z"/>
          <path class="cls-1" d="M184.93,326.32c-2.54,0-5.05-.04-7.54-.13-36.05-1.24-69.01-12.82-97.97-34.42-19.97-14.89-38.03-33.47-56.84-58.48-6.93-9.21-13.87-19.27-21.22-30.77-.13-.2-.22-.38-.31-.55-.04-.09-.11-.21-.15-.28-.55-.26-.91-.81-.91-1.42v-.75c0-.51.24-.98.65-1.28,2.35-1.7,3.98.27,4.59,1.01,13.73,16.6,27.75,30.61,42.87,42.86,29.95,24.25,63.68,39.99,100.27,46.79,17.9,3.33,36.96,4.79,56.65,4.34,20.18-.46,41.76-2.72,65.99-6.91,34.8-6.02,68.41-14.62,102.66-23.64,8.19-2.16,16.52-4.38,24.57-6.52,21.26-5.66,43.24-11.51,64.97-16.87,31.56-7.78,59.57-13.75,85.64-18.25,23.98-4.14,47.83-7.19,70.89-9.07,21.89-1.79,44.6-2.41,69.43-1.9,2.53.05,5.25.17,8.34.35.01,0,.07-.01.13-.02.43-.05,1.33-.15,2.08.49.5.44.76,1.06.78,1.86.02.78-.2,1.42-.65,1.88-.67.69-1.56.7-2.03.7-.07,0-.15,0-.22,0-17.78.94-35.85,2.46-55.25,4.65-23.34,2.63-47.67,6.24-72.31,10.73-49.48,9.01-102,22.38-165.3,42.07-12.81,3.99-25.81,8.14-38.38,12.16-19.63,6.28-39.93,12.77-60.03,18.77-18.27,5.45-42.46,12.32-67.58,17.07-19.61,3.7-37.3,5.52-53.83,5.52ZM9.07,208.6c5.47,8.27,10.76,15.78,16.03,22.79,18.62,24.76,36.48,43.14,56.2,57.85,28.44,21.21,60.8,32.58,96.2,33.8,18.44.64,38.29-1.11,60.68-5.34,24.97-4.72,49.06-11.56,67.26-16.99,20.07-5.99,40.35-12.48,59.97-18.75,12.58-4.02,25.58-8.18,38.4-12.17,63.42-19.73,116.06-33.12,165.67-42.16,24.71-4.5,49.11-8.12,72.52-10.76,14.15-1.6,27.6-2.84,40.74-3.76-22.25-.29-42.84.37-62.74,2-22.97,1.88-46.73,4.92-70.61,9.04-26,4.48-53.94,10.44-85.42,18.2-21.7,5.35-43.67,11.2-64.91,16.86-8.05,2.14-16.38,4.36-24.57,6.52-34.31,9.04-68,17.65-102.92,23.7-24.38,4.22-46.11,6.49-66.45,6.95-19.91.45-39.19-1.03-57.3-4.39-37.1-6.9-71.31-22.86-101.67-47.44-13-10.52-25.19-22.34-37.07-35.95ZM1,201.73h0,0Z"/>
        </g>
        <g>
          <path class="cls-1" d="M309.31,75.06c6.95-7.16,13.95-14.29,20.84-21.5,11.65-12.19,24.14-23.45,37.4-33.87,1.73-1.36,3.48-2.67,5.39-3.78,7.63-4.45,14.07-3.55,20.15,2.87,5.89,6.23,9.33,13.87,12.42,21.73,3.52,8.95,4.81,18.4,6.37,27.79,2.17,13,3.76,26.08,4.71,39.23.8,11.09,1.22,22.19.25,33.29-.06.65.17,1.59-.81,1.6-.86.01-.93-.86-1.04-1.55-2.51-15.16-5.61-30.2-9.48-45.07-3.49-13.4-7.37-26.69-13.61-39.14-2.17-4.33-4.66-8.46-8.33-11.74-3.03-2.71-6.29-3.39-10.24-1.95-20.27,7.4-39.64,16.53-57.45,28.83-1.95,1.35-4.05,2.49-6.08,3.73-.43.14-.54-.07-.46-.45Z"/>
          <path class="cls-1" d="M416,143.98c-1.41,0-2.27-.92-2.55-2.72l-.02-.14c-2.59-15.69-5.77-30.81-9.46-44.93-3.89-14.9-7.67-27.21-13.5-38.83-1.86-3.71-4.27-7.96-7.97-11.28-2.64-2.36-5.31-2.87-8.66-1.65-22.29,8.14-40.97,17.51-57.09,28.64-1.38.95-2.83,1.81-4.23,2.63-.64.38-1.29.76-1.92,1.15-.11.07-.23.12-.35.16-.99.31-1.63-.08-1.92-.34-.29-.26-.76-.86-.56-1.91.06-.3.2-.58.42-.8,2.15-2.22,4.31-4.43,6.47-6.65,4.72-4.85,9.61-9.87,14.37-14.84,11.42-11.95,24.06-23.4,37.56-34.02,1.69-1.33,3.53-2.72,5.57-3.91,8.29-4.83,15.51-3.8,22.08,3.14,6.32,6.68,9.89,14.98,12.74,22.23,3.19,8.12,4.59,16.71,5.95,25.02.17,1.03.34,2.06.51,3.09,2.21,13.24,3.8,26.49,4.73,39.38.71,9.86,1.3,21.55.25,33.54,0,.08,0,.17,0,.26,0,2.48-1.65,2.76-2.36,2.77-.01,0-.03,0-.04,0ZM377.14,40.65c2.68,0,5.14,1.03,7.45,3.09,4.1,3.67,6.69,8.23,8.69,12.21,5.95,11.86,9.8,24.35,13.73,39.45,3.29,12.62,6.18,26.02,8.62,39.92.48-9.89-.02-19.43-.62-27.68-.92-12.79-2.5-25.94-4.69-39.09-.17-1.03-.34-2.07-.51-3.1-1.33-8.14-2.7-16.56-5.77-24.37-2.74-6.98-6.16-14.95-12.1-21.22-5.57-5.89-11.18-6.68-18.21-2.59-1.88,1.09-3.61,2.4-5.21,3.66-13.39,10.53-25.91,21.88-37.23,33.72-4.45,4.65-9,9.33-13.43,13.88,15.68-10.43,33.68-19.29,54.91-27.05,1.53-.56,2.98-.84,4.38-.84Z"/>
        </g>
      </g>
      <g>
        <path class="cls-1" d="M420.83,320.21c-1.11-.45-1.98-1.1-2.63-1.94-.65-.84-1.02-1.83-1.1-2.98v-.2s2.51,0,2.51,0l.03.2c.1.67.38,1.25.83,1.74.45.49,1.04.87,1.79,1.13.74.27,1.6.4,2.57.4s1.81-.14,2.52-.41c.71-.28,1.26-.67,1.65-1.18.39-.51.58-1.12.58-1.81h0c0-.9-.31-1.61-.92-2.14-.62-.53-1.62-.95-3.01-1.26l-2.24-.49c-1.97-.44-3.43-1.11-4.38-2.02-.95-.91-1.42-2.1-1.42-3.58h0c0-1.13.32-2.1.92-2.95.61-.85,1.44-1.51,2.51-1.99,1.07-.48,2.29-.72,3.68-.72s2.49.24,3.53.71c1.04.47,1.86,1.13,2.49,1.97.62.84.97,1.81,1.04,2.91v.21s-2.51,0-2.51,0l-.03-.2c-.1-.69-.36-1.28-.76-1.76-.4-.49-.93-.86-1.58-1.12-.65-.26-1.4-.39-2.26-.39s-1.68.14-2.35.41c-.67.27-1.19.65-1.56,1.13-.37.49-.55,1.06-.55,1.71h0c0,.84.31,1.51.94,2.04.63.53,1.6.94,2.91,1.23l2.24.49c1.38.3,2.5.7,3.37,1.19.86.49,1.5,1.11,1.9,1.84.41.73.61,1.61.61,2.64h0c0,1.21-.3,2.25-.9,3.12-.6.88-1.46,1.55-2.58,2.03-1.12.48-2.44.71-3.98.71-1.46,0-2.74-.23-3.84-.68Z"/>
        <path class="cls-1" d="M437.6,304.73h2.44v15.83h-2.44v-15.83Z"/>
        <path class="cls-1" d="M446.13,304.73h2.28l10.42,14.27-2.7-2.33h1.05v-11.95h2.42v15.83h-2.27l-10.42-14.29,2.69,2.33h-1.05v11.96h-2.42v-15.83Z"/>
        <path class="cls-1" d="M468.67,319.82c-1.15-.67-2.04-1.62-2.67-2.84-.63-1.23-.95-2.67-.95-4.34h0c0-1.69.31-3.13.94-4.36.63-1.22,1.51-2.17,2.67-2.83,1.15-.66,2.51-.99,4.07-.99,1.2,0,2.29.22,3.26.65.97.43,1.77,1.04,2.41,1.82.63.78,1.04,1.68,1.22,2.71l.03.11h-2.44l-.07-.22c-.19-.63-.48-1.16-.89-1.61-.41-.45-.91-.79-1.5-1.03-.59-.24-1.27-.36-2.02-.36-1.05,0-1.96.25-2.74.75-.78.5-1.38,1.2-1.81,2.12-.43.91-.64,1.99-.64,3.23h0c0,1.25.21,2.32.64,3.24.43.92,1.03,1.62,1.81,2.13.78.5,1.69.76,2.73.76.75,0,1.41-.12,2-.36.59-.24,1.09-.59,1.51-1.06.42-.47.73-1.04.95-1.71l.03-.1h2.44v.11c-.2,1.04-.61,1.94-1.24,2.72s-1.43,1.38-2.4,1.81c-.97.43-2.06.65-3.28.65-1.56,0-2.91-.33-4.06-1Z"/>
        <path class="cls-1" d="M484.95,304.73h10.48v2.02h-8.04v4.76h7.62v1.96h-7.62v5.07h8.04v2.02h-10.48v-15.83Z"/>
        <path class="cls-1" d="M509.81,318.82l7.12-7.42c.92-.95,1.61-1.74,2.09-2.36.48-.62.81-1.18.99-1.67.18-.49.27-1.02.27-1.58v-.03c0-.69-.16-1.3-.48-1.83s-.77-.95-1.33-1.25c-.56-.3-1.22-.46-1.95-.46-.84,0-1.59.18-2.26.53s-1.19.82-1.57,1.41c-.38.59-.57,1.25-.57,1.97v.07h-2.44v-.08c0-1.17.3-2.21.91-3.13.61-.92,1.43-1.64,2.46-2.17,1.03-.53,2.17-.79,3.42-.79s2.31.25,3.26.74c.95.49,1.7,1.17,2.25,2.02.55.85.82,1.8.82,2.86v.03c0,.74-.14,1.45-.41,2.14s-.75,1.47-1.44,2.33c-.68.86-1.64,1.93-2.89,3.2l-5.55,5.69.74-1.55v1.55l-.74-.7h10.62v2.24h-13.33v-1.74Z"/>
        <path class="cls-1" d="M531.97,319.61c-1.11-.85-1.95-2.05-2.54-3.61-.59-1.56-.88-3.41-.88-5.55v-.03c0-2.14.29-3.99.88-5.55.59-1.56,1.44-2.76,2.54-3.61s2.43-1.27,3.98-1.27,2.88.42,3.99,1.27c1.11.85,1.96,2.05,2.56,3.61.59,1.56.89,3.41.89,5.55v.03c0,2.14-.3,3.99-.89,5.55-.59,1.56-1.45,2.76-2.56,3.61s-2.44,1.27-3.99,1.27-2.88-.42-3.98-1.27ZM538.6,317.69c.73-.67,1.29-1.62,1.68-2.85.39-1.23.58-2.69.58-4.38v-.03c0-1.69-.19-3.15-.58-4.38-.39-1.23-.95-2.17-1.68-2.84s-1.61-.99-2.64-.99-1.9.33-2.63.99c-.73.66-1.28,1.61-1.67,2.84-.38,1.23-.57,2.69-.57,4.38v.03c0,1.69.19,3.15.57,4.38.38,1.23.94,2.18,1.67,2.85s1.61,1,2.63,1,1.91-.33,2.64-1Z"/>
        <path class="cls-1" d="M554.05,303.02h-.06l-5.35,3.73v-2.54l5.38-3.87h2.47v20.21h-2.44v-17.54Z"/>
        <path class="cls-1" d="M569.64,303.02h-.06l-5.35,3.73v-2.54l5.38-3.87h2.47v20.21h-2.44v-17.54Z"/>
      </g>
    </g>
  </g>
</svg>