<?xml version="1.0" encoding="utf-8"?>
<!-- Generator: Adobe Illustrator 17.0.0, SVG Export Plug-In . SVG Version: 6.00 Build 0)  -->
<!DOCTYPE svg PUBLIC "-//W3C//DTD SVG 1.1//EN" "http://www.w3.org/Graphics/SVG/1.1/DTD/svg11.dtd">
<svg version="1.1" id="Calque_1" xmlns="http://www.w3.org/2000/svg" xmlns:xlink="http://www.w3.org/1999/xlink" x="0px" y="0px"
	 width="447.857px" height="142.143px" viewBox="0 0 447.857 142.143" enable-background="new 0 0 447.857 142.143"
	 xml:space="preserve">
<g>
	<g>
		<path fill="#FFFFFF" d="M13.571,13.771H48.71c9.735,0,17.202,2.6,22.401,7.797c4.392,4.392,6.589,10.25,6.589,17.569v0.22
			c0,6.223-1.52,11.293-4.557,15.208c-3.038,3.917-7.01,6.791-11.914,8.62l18.777,27.451H60.24L43.769,66.04h-0.22H30.482v24.596
			H13.571V13.771z M47.612,51.106c4.173,0,7.374-0.988,9.608-2.965c2.232-1.976,3.349-4.612,3.349-7.906v-0.22
			c0-3.66-1.172-6.404-3.514-8.236c-2.344-1.829-5.6-2.745-9.773-2.745H30.482v22.071H47.612z"/>
		<path fill="#FFFFFF" d="M119.096,91.954c-4.392,0-8.474-0.732-12.243-2.196c-3.771-1.464-7.028-3.549-9.773-6.259
			c-2.745-2.707-4.887-5.911-6.424-9.608c-1.538-3.696-2.306-7.814-2.306-12.354v-0.22c0-4.173,0.714-8.126,2.141-11.859
			c1.427-3.734,3.421-6.991,5.985-9.774c2.562-2.781,5.617-4.977,9.169-6.588c3.55-1.609,7.483-2.416,11.804-2.416
			c4.903,0,9.15,0.878,12.738,2.636c3.586,1.757,6.569,4.117,8.949,7.083c2.378,2.965,4.135,6.368,5.271,10.212
			c1.134,3.843,1.702,7.852,1.702,12.025c0,0.659-0.019,1.355-0.054,2.086c-0.038,0.733-0.093,1.501-0.165,2.306h-40.958
			c0.804,3.807,2.471,6.681,4.997,8.62c2.525,1.94,5.654,2.91,9.388,2.91c2.781,0,5.271-0.475,7.467-1.427
			c2.196-0.951,4.465-2.488,6.808-4.612l9.554,8.455c-2.783,3.441-6.15,6.131-10.103,8.07
			C129.088,90.983,124.439,91.954,119.096,91.954z M129.857,56.596c-0.513-3.734-1.831-6.753-3.953-9.059
			c-2.124-2.306-4.941-3.46-8.455-3.46c-3.514,0-6.352,1.136-8.511,3.404c-2.16,2.27-3.568,5.309-4.227,9.114H129.857z"/>
		<path fill="#FFFFFF" d="M158.516,10.477h16.691v42.715l19.545-21.413h19.985l-22.401,23.17l23.169,35.687h-19.107l-15.373-24.047
			l-5.82,6.15v17.898h-16.691V10.477z"/>
		<path fill="#FFFFFF" d="M223.522,31.779h16.691v11.859c1.683-4.025,3.989-7.247,6.917-9.663c2.927-2.416,6.88-3.514,11.859-3.294
			v17.459h-0.878c-5.564,0-9.938,1.685-13.122,5.051c-3.185,3.368-4.776,8.603-4.776,15.703v21.741h-16.691V31.779z"/>
		<path fill="#FFFFFF" d="M288.967,91.734c-6.368,0-11.293-1.939-14.769-5.82c-3.477-3.878-5.215-9.223-5.215-16.031V31.779h16.69
			v32.752c0,3.944,0.879,6.921,2.636,8.929c1.757,2.008,4.245,3.011,7.467,3.011c3.22,0,5.765-1.004,7.631-3.011
			c1.868-2.007,2.802-4.984,2.802-8.929V31.779h16.691v58.857h-16.691v-8.413c-0.953,1.254-1.997,2.452-3.131,3.594
			c-1.136,1.143-2.398,2.157-3.788,3.042c-1.391,0.886-2.929,1.586-4.612,2.103C292.992,91.475,291.089,91.734,288.967,91.734z"/>
		<path fill="#FFFFFF" d="M357.706,91.625c-2.563,0-4.888-0.275-6.973-0.823c-2.087-0.55-3.882-1.519-5.382-2.911
			c-1.501-1.389-2.672-3.201-3.513-5.434c-0.843-2.232-1.262-5.069-1.262-8.511V46.055h-7.028V31.779h7.028V16.736h16.691v15.043
			h13.835v14.276h-13.835V71.29c0,3.821,1.792,5.731,5.38,5.731c2.926,0,5.672-0.731,8.235-2.197v13.396
			c-1.757,1.026-3.697,1.849-5.82,2.471C362.938,91.313,360.487,91.625,357.706,91.625z"/>
		<path fill="#FFFFFF" d="M411.29,91.954c-4.391,0-8.474-0.732-12.244-2.196c-3.77-1.464-7.026-3.549-9.772-6.259
			c-2.745-2.707-4.888-5.911-6.425-9.608c-1.537-3.696-2.305-7.814-2.305-12.354v-0.22c0-4.173,0.712-8.126,2.14-11.859
			c1.428-3.734,3.421-6.991,5.984-9.774c2.562-2.781,5.618-4.977,9.17-6.588c3.549-1.609,7.483-2.416,11.803-2.416
			c4.904,0,9.151,0.878,12.739,2.636c3.586,1.757,6.569,4.117,8.949,7.083c2.378,2.965,4.135,6.368,5.271,10.212
			c1.134,3.843,1.701,7.852,1.701,12.025c0,0.659-0.018,1.355-0.055,2.086c-0.037,0.733-0.093,1.501-0.164,2.306h-40.958
			c0.805,3.807,2.471,6.681,4.997,8.62c2.526,1.94,5.655,2.91,9.388,2.91c2.781,0,5.271-0.475,7.467-1.427
			c2.196-0.951,4.465-2.488,6.808-4.612l9.552,8.455c-2.783,3.441-6.148,6.131-10.102,8.07
			C421.283,90.983,416.633,91.954,411.29,91.954z M422.051,56.596c-0.512-3.734-1.83-6.753-3.952-9.059
			c-2.124-2.306-4.941-3.46-8.456-3.46c-3.513,0-6.351,1.136-8.51,3.404c-2.16,2.27-3.569,5.309-4.227,9.114H422.051z"/>
	</g>
	<rect x="150.66" y="103.405" fill="#EE2A7B" width="72.702" height="13.746"/>
</g>
<g>
	<path fill="#FFFFFF" d="M271.236,117.428h1.821l5.806,8.697l5.805-8.697h1.821v15.937h-1.798v-12.908l-5.806,8.537h-0.091
		l-5.806-8.515v12.886h-1.753V117.428z"/>
	<path fill="#FFFFFF" d="M289.24,129.95v-0.046c0-2.481,2.049-3.802,5.031-3.802c1.502,0,2.572,0.205,3.619,0.501v-0.409
		c0-2.118-1.297-3.21-3.506-3.21c-1.389,0-2.481,0.363-3.574,0.864l-0.523-1.434c1.298-0.592,2.572-0.979,4.28-0.979
		c1.662,0,2.937,0.433,3.802,1.298c0.797,0.797,1.207,1.936,1.207,3.438v7.194h-1.686v-1.775c-0.819,1.069-2.186,2.025-4.257,2.025
		C291.448,133.615,289.24,132.363,289.24,129.95z M297.914,129.04v-1.139c-0.865-0.25-2.026-0.501-3.461-0.501
		c-2.208,0-3.438,0.956-3.438,2.437v0.045c0,1.479,1.366,2.345,2.96,2.345C296.137,132.226,297.914,130.906,297.914,129.04z"/>
	<path fill="#FFFFFF" d="M302.738,116.746h1.753v11.474l6.352-6.625h2.186l-4.94,5.055l5.1,6.716h-2.094l-4.212-5.486l-2.391,2.413
		v3.073h-1.753V116.746z"/>
	<path fill="#FFFFFF" d="M313.822,127.514v-0.046c0-3.393,2.391-6.124,5.646-6.124c3.483,0,5.487,2.777,5.487,6.215
		c0,0.228,0,0.364-0.023,0.569h-9.334c0.251,2.55,2.049,3.984,4.144,3.984c1.616,0,2.755-0.66,3.711-1.662l1.093,0.979
		c-1.184,1.321-2.618,2.209-4.849,2.209C316.463,133.638,313.822,131.157,313.822,127.514z M323.178,126.831
		c-0.182-2.14-1.411-4.007-3.756-4.007c-2.049,0-3.598,1.708-3.825,4.007H323.178z"/>
	<path fill="#FFFFFF" d="M333.716,121.594h1.753v1.981c0.774-1.161,1.821-2.231,3.802-2.231c1.912,0,3.142,1.024,3.779,2.345
		c0.843-1.298,2.095-2.345,4.144-2.345c2.709,0,4.371,1.821,4.371,4.735v7.285h-1.753v-6.875c0-2.277-1.139-3.552-3.051-3.552
		c-1.775,0-3.232,1.32-3.232,3.643v6.784h-1.754v-6.921c0-2.208-1.16-3.506-3.027-3.506s-3.278,1.548-3.278,3.711v6.716h-1.753
		V121.594z"/>
	<path fill="#FFFFFF" d="M354.064,127.514v-0.046c0-3.393,2.391-6.124,5.646-6.124c3.483,0,5.487,2.777,5.487,6.215
		c0,0.228,0,0.364-0.023,0.569h-9.334c0.251,2.55,2.049,3.984,4.144,3.984c1.616,0,2.755-0.66,3.711-1.662l1.093,0.979
		c-1.184,1.321-2.618,2.209-4.849,2.209C356.705,133.638,354.064,131.157,354.064,127.514z M363.421,126.831
		c-0.182-2.14-1.411-4.007-3.756-4.007c-2.049,0-3.598,1.708-3.825,4.007H363.421z"/>
	<path fill="#FFFFFF" d="M375.711,131.111v2.254h-1.753v-16.619h1.753v7.217c0.956-1.411,2.345-2.618,4.508-2.618
		c2.823,0,5.623,2.231,5.623,6.102v0.045c0,3.848-2.777,6.124-5.623,6.124C378.033,133.615,376.621,132.431,375.711,131.111z
		 M384.043,127.514v-0.046c0-2.777-1.912-4.553-4.144-4.553c-2.186,0-4.257,1.844-4.257,4.53v0.045c0,2.732,2.071,4.554,4.257,4.554
		C382.176,132.045,384.043,130.36,384.043,127.514z"/>
	<path fill="#FFFFFF" d="M387.773,127.514v-0.046c0-3.393,2.391-6.124,5.646-6.124c3.483,0,5.487,2.777,5.487,6.215
		c0,0.228,0,0.364-0.023,0.569h-9.334c0.251,2.55,2.049,3.984,4.144,3.984c1.616,0,2.755-0.66,3.711-1.662l1.093,0.979
		c-1.184,1.321-2.618,2.209-4.849,2.209C390.414,133.638,387.773,131.157,387.773,127.514z M397.13,126.831
		c-0.182-2.14-1.411-4.007-3.756-4.007c-2.049,0-3.598,1.708-3.825,4.007H397.13z"/>
	<path fill="#FFFFFF" d="M402.021,130.246v-7.103h-1.639v-1.549h1.639v-3.551h1.753v3.551h3.734v1.549h-3.734v6.875
		c0,1.435,0.797,1.958,1.981,1.958c0.592,0,1.093-0.114,1.707-0.41v1.503c-0.614,0.318-1.274,0.501-2.117,0.501
		C403.456,133.57,402.021,132.636,402.021,130.246z"/>
	<path fill="#FFFFFF" d="M410.648,130.246v-7.103h-1.639v-1.549h1.639v-3.551h1.753v3.551h3.734v1.549h-3.734v6.875
		c0,1.435,0.797,1.958,1.981,1.958c0.592,0,1.093-0.114,1.707-0.41v1.503c-0.614,0.318-1.274,0.501-2.117,0.501
		C412.083,133.57,410.648,132.636,410.648,130.246z"/>
	<path fill="#FFFFFF" d="M417.591,127.514v-0.046c0-3.393,2.391-6.124,5.646-6.124c3.483,0,5.487,2.777,5.487,6.215
		c0,0.228,0,0.364-0.023,0.569h-9.334c0.251,2.55,2.049,3.984,4.144,3.984c1.616,0,2.755-0.66,3.711-1.662l1.093,0.979
		c-1.184,1.321-2.618,2.209-4.85,2.209C420.231,133.638,417.591,131.157,417.591,127.514z M426.947,126.831
		c-0.182-2.14-1.411-4.007-3.756-4.007c-2.049,0-3.598,1.708-3.825,4.007H426.947z"/>
	<path fill="#FFFFFF" d="M431.224,121.594h1.753v3.074c0.865-1.958,2.572-3.37,4.804-3.278v1.89h-0.137
		c-2.572,0-4.667,1.844-4.667,5.396v4.689h-1.753V121.594z"/>
	<path fill="#FFFFFF" d="M437.62,130.974h2.095v2.391h-2.095V130.974z"/>
</g>
</svg>
